<svg width="127" height="128" viewBox="0 0 127 128" fill="none" xmlns="http://www.w3.org/2000/svg">
<rect width="127" height="127" transform="translate(0 0.5)" fill="#F6F6F6"/>
<g opacity="0.08">
<rect x="0.375" y="0.875" width="126.25" height="126.25" rx="63.125" stroke="#121212" stroke-width="0.75"/>
</g>
<path d="M84.6663 87.8125C84.6663 84.1201 84.6663 82.2739 84.2106 80.7716C83.1846 77.3891 80.5376 74.7422 77.1552 73.7161C75.6529 73.2604 73.8067 73.2604 70.1142 73.2604H56.8851C53.1927 73.2604 51.3464 73.2604 49.8442 73.7161C46.4617 74.7422 43.8148 77.3891 42.7887 80.7716C42.333 82.2739 42.333 84.1201 42.333 87.8125M75.4059 52.0938C75.4059 58.6694 70.0753 64 63.4997 64C56.924 64 51.5934 58.6694 51.5934 52.0938C51.5934 45.5181 56.924 40.1875 63.4997 40.1875C70.0753 40.1875 75.4059 45.5181 75.4059 52.0938Z" stroke="#5D5D5D" stroke-width="2.66667" stroke-linecap="round" stroke-linejoin="round"/>
</svg>
